<?xml version="1.0" encoding="UTF-8" standalone="no"?>
<svg width="280px" height="280px" viewBox="0 0 280 280" version="1.1" xmlns="http://www.w3.org/2000/svg" xmlns:xlink="http://www.w3.org/1999/xlink" xmlns:sketch="http://www.bohemiancoding.com/sketch/ns">
    <title>appstore</title>
    <description>Created with Sketch (http://www.bohemiancoding.com/sketch)</description>
    <defs></defs>
    <g id="Page-1" stroke="none" stroke-width="1" fill="none" fill-rule="evenodd" sketch:type="MSPage">
        <g id="appstore" sketch:type="MSArtboardGroup" fill="#FFFFFF">
            <path d="M119.500671,138.823263 L97.0271973,177.689016 L187.29491,177.736732 L165.789599,138.713635 L119.500671,138.823263 Z M101.744275,108.695869 L124.733956,122.176015 L77.382688,205.426216 C77.382688,205.426216 62.9725478,200.080034 54.1966016,191.743069 L82.8742924,139.856722 L101.744275,108.695869 Z M53.6176457,194.947846 C53.6176457,194.947846 62.3766673,203.100476 74.0159493,207.229041 C74.0159493,207.229041 56.9540972,222.707748 46.9677137,234.009784 C46.9677137,234.009784 44.620377,234.639428 44.6203771,232.069915 C44.6203771,232.069915 48.4957984,223.650579 52.7462803,197.644755 L53.6176457,194.947846 Z M57.4511418,177.736732 L79.9644668,138.713635 L37.9395935,138.713635 L37.9395935,177.670139 L57.4511418,177.736732 Z M198.534645,138.713635 L242.060406,138.713635 L242.060406,177.736732 L217.658681,177.736732 L198.534645,138.713635 Z M116.837759,83.3241339 L138.829701,95.6503056 C138.829701,95.6503056 141.559588,92.9032957 141.559588,85.8212459 C141.559588,85.8212459 140.688925,78.6251631 130.802733,75.7811237 C130.802733,75.7811237 124.670481,74.8388915 120.737956,78.5843245 C120.737956,78.5843245 118.916773,80.154655 117.642384,82.2970983 C116.367996,84.4395416 116.837759,83.3241339 116.837759,83.3241339 Z M128.906836,46.5467798 C128.906836,46.5467798 129.020903,40.6806183 135.353034,42.9118159 C135.353034,42.9118159 150.635457,63.2955398 174.357809,104.002661 C174.357809,104.002661 187.598782,123.102543 200.454065,151.196365 C200.454065,151.196365 201.40115,153.511734 200.162846,154.261528 C200.162846,154.261528 194.357704,158.948699 184.66553,162.398211 C184.66553,162.398211 183.219295,162.932453 182.196433,161.49885 C182.196433,161.49885 166.608501,134.638997 158.808838,116.053052 C158.808838,116.053052 133.60122,62.096922 130.806764,52.7324477 L128.906836,46.5467798 Z M185.659909,164.954264 C185.659909,164.954264 195.675924,161.05614 202.741308,155.214613 L214.476525,179.924306 C214.476525,179.924306 208.03742,185.172853 198.706938,188.611577 L185.268564,166.524041 L185.659909,164.954264 Z M202.14916,191.570115 C202.14916,191.570115 205.928437,189.870997 209.367056,188.176993 C211.593427,187.080192 213.5275,185.695792 215.268009,184.395458 C215.268009,184.395458 229.587516,205.266404 239.06655,220.926967 C239.06655,220.926967 242.21351,228.306026 235.695432,233.134078 C235.695432,233.134078 231.266318,237.66783 224.825344,235.835028 C224.825344,235.835028 221.711726,234.796079 219.090584,231.608216 C219.090584,231.608216 215.744913,224.972376 210.559412,212.831722 C208.175477,207.25029 206.127676,201.772749 203.08575,194.275085 L202.14916,191.570115 Z M103.245163,106.367991 L115.775529,85.7406318 L137.765595,98.6485988 L126.28761,119.707757 L103.245163,106.367991 Z" id="Oval-1" sketch:type="MSShapeGroup"></path>
        </g>
    </g>
</svg>