<?xml version="1.0" encoding="UTF-8" standalone="no"?>
<svg width="280px" height="280px" viewBox="0 0 280 280" version="1.1" xmlns="http://www.w3.org/2000/svg" xmlns:xlink="http://www.w3.org/1999/xlink" xmlns:sketch="http://www.bohemiancoding.com/sketch/ns">
    <title>cocacola</title>
    <description>Created with Sketch (http://www.bohemiancoding.com/sketch)</description>
    <defs></defs>
    <g id="Page-1" stroke="none" stroke-width="1" fill="none" fill-rule="evenodd" sketch:type="MSPage">
        <g id="cocacola" sketch:type="MSArtboardGroup" fill="#FFFFFF">
            <path d="M61.6029698,101.562085 C61.6029698,101.562085 56.9143467,101.633744 55.9288378,106.226198 C55.9288378,106.226198 54.7386976,110.881447 58.5495316,110.425636 C58.5495316,110.425636 61.1340703,110.572648 63.9772864,104.729486 C63.9772864,104.729486 67.3851948,98.6007953 63.2318181,94.7629766 C63.2318181,94.7629766 61.3267741,92.1093779 51.6013942,93.9765747 C51.6013942,93.9765747 39.8080853,97.0723164 26.1999343,110.488061 C26.1999343,110.488061 14.7793621,120.919618 7.79506714,136.997823 C7.79506714,136.997823 3.50974189,146.218564 3.50974255,157.708747 C3.50974255,157.708747 3.02891531,166.723746 8.82306794,172.719089 C8.82306794,172.719089 13.7839984,178.316988 24.0902589,178.750263 C24.0902589,178.750263 28.4478929,179.233041 40.0246441,176.190486 C40.0246441,176.190486 57.3780272,170.932418 66.0090603,170.932416 C66.0090603,170.932416 78.5228634,170.06106 84.7501336,175.448779 C84.7501336,175.448779 87.2329147,177.857115 88.3869008,179.81813 C88.3869008,179.81813 96.0525572,166.348822 120.474093,180.689119 C120.474093,180.689119 110.514636,168.810352 97.9281497,165.553559 C97.9281497,165.553559 85.6241943,162.372494 66.8227389,166.652454 C66.8227389,166.652454 55.8893285,170.266433 39.3537226,173.228458 C39.3537226,173.228458 26.118305,175.940422 19.782943,170.083589 C19.782943,170.083589 14.0126461,164.655239 15.2687597,156.783829 C15.2687597,156.783829 16.0019266,141.665999 25.252444,128.741895 C25.252444,128.741895 38.4580419,107.517168 51.5794029,99.842269 C51.5794029,99.842269 58.896919,95.4596201 61.4371031,97.9658378 C61.4371031,97.9658378 62.4587664,98.6410575 62.4587674,100.101571 C62.4587684,101.562085 61.6029698,101.562085 61.6029698,101.562085 Z M31.6865286,150.811418 C31.6865286,150.811418 31.6745076,139.381891 41.9450832,127.311129 C41.9450832,127.311129 49.3498167,117.676953 57.6133596,115.067174 C57.6133596,115.067174 63.4134661,112.893815 65.5040861,117.393633 C65.5040861,117.393633 67.1351582,120.793285 64.5587301,127.493436 L63.3809186,130.911132 C63.3809186,130.911132 68.8531456,130.28087 77.4895057,120.453413 C77.4895057,120.453413 83.9923415,113.453572 90.5382659,114.571783 C90.5382659,114.571783 94.969714,115.350494 94.9697144,120.5814 C94.9697144,120.5814 95.2889012,125.272454 90.6784419,129.344781 C90.6784419,129.344781 88.1883756,131.747698 86.4169429,129.419006 C86.4169429,129.419006 84.520129,127.112824 88.3701608,123.355441 C88.3701608,123.355441 89.8704881,121.888615 92.2083577,121.888614 C92.2083577,121.888614 93.1357757,119.260791 90.7529682,118.605974 C90.7529682,118.605974 88.8204625,117.629516 84.9317798,121.913356 C84.9317798,121.913356 80.3960321,125.706643 73.6563018,137.394933 C73.6563018,137.394933 67.6710822,148.428407 71.9087247,151.117061 C76.1463678,153.805716 82.2210936,146.959348 82.2210936,146.959348 C82.2210936,146.959348 91.0512583,138.00473 96.2163194,129.293065 C96.2163194,129.293065 102.483186,120.258084 111.092731,115.447786 C111.092731,115.447786 116.240963,112.552269 119.479436,117.058784 L120.493216,115.468063 L128.930052,115.468063 L111.006739,146.879728 C111.006739,146.879728 109.897166,149.905837 112.062312,149.289342 C112.062312,149.289342 116.962002,146.589339 124.131135,136.550368 L126.827027,136.611199 C126.827027,136.611199 119.987066,148.925659 111.067395,155.517913 C111.067395,155.517913 105.061278,160.283193 101.14874,156.451585 C101.14874,156.451585 99.902135,155.632506 100.719335,151.927025 C100.719335,151.927025 95.2349023,158.071512 89.7687772,158.071512 C89.7687772,158.071512 86.3690465,158.49212 85.3164317,154.52341 C85.3164317,154.52341 84.5770865,151.654867 86.1008996,147.249551 C86.1008996,147.249551 75.9976852,158.068536 70.2782076,158.068535 C70.2782076,158.068535 64.114346,158.694146 62.1459642,155.17525 C62.1459642,155.17525 59.3903402,151.645194 61.0931646,144.128196 C61.0931646,144.128196 62.867557,138.723727 66.0435233,133.429757 L61.9251592,134.070994 C61.9251592,134.070994 56.8022612,144.662281 48.4462547,152.363817 C48.4462547,152.363817 40.6897868,160.450617 34.5732669,157.487013 C34.5732669,157.487013 32.1248093,156.834802 31.7222198,152.042176 L31.7521783,151.425681 L31.6865286,150.811418 Z M60.095759,131.351568 C60.095759,131.351568 54.2357517,130.990689 54.2357513,125.739229 C54.2357513,125.739229 55.5575641,118.904245 61.142593,118.691685 C61.142593,118.691685 63.6290631,118.095194 62.301681,125.005566 C60.974299,131.915939 60.095759,131.351568 60.095759,131.351568 Z M51.8923053,128.544041 C51.8923053,128.544041 52.9469665,130.668671 55.4233169,132.368595 C56.5824974,133.16433 58.0531955,133.867005 59.873057,134.215136 C59.873057,134.215136 52.6854789,148.503421 45.9762748,149.593052 C45.9762748,149.593052 42.4684524,150.633858 43.0199694,145.67119 C43.0199694,145.67119 44.0156638,139.182042 50.6300668,130.048042 L51.2672654,129.243624 L51.8923053,128.544041 Z M111.440734,133.4707 C111.440734,133.4707 103.752775,147.627344 98.8485504,149.557312 C98.8485504,149.557312 96.2336239,150.490699 96.5406018,147.289184 C96.5406018,147.289184 97.0563555,142.202628 104.363685,132.194493 C104.363685,132.194493 113.957268,119.388249 115.823306,119.189902 C115.823306,119.189902 117.526624,118.195744 118.474963,118.98037 C118.474963,118.98037 119.303404,119.719698 118.996616,120.333007 C118.996616,120.333007 115.252361,127.191638 114.684652,127.739515 C114.116942,128.287393 111.913477,132.553158 111.913477,132.553158 L111.440734,133.4707 Z M131.748705,122.868 L136.221767,115.860104 L144.432642,115.860104 L139.947229,122.906736 L131.748705,122.868 Z M145.615858,162.619932 C145.615858,162.619932 148.687078,157.720568 156.81915,154.259641 C156.81915,154.259641 156.941969,146.09528 165.095038,140.433824 C165.095038,140.433824 168.163285,138.828542 168.801536,142.790014 C168.801536,142.790014 169.64659,149.092017 162.937807,159.125261 C162.937807,159.125261 155.114176,172.671259 146.254109,172.671258 C146.254109,172.671258 141.438895,173.343311 139.527302,166.933183 C139.527302,166.933183 137.226071,155.745427 146.562736,139.583925 C146.562736,139.583925 154.557683,124.050854 169.533433,108.797787 C169.533433,108.797787 177.93214,100.083667 187.208789,97.1954275 C187.208789,97.1954275 189.809544,96.9586714 190.753448,97.3600383 C190.753448,97.3600383 182.621563,101.786076 175.547109,112.43041 C175.547109,112.43041 170.477153,119.968021 172.014341,125.187469 C172.014341,125.187469 172.475703,128.673194 177.536555,128.219999 C177.536555,128.219999 182.372581,128.422828 191.062075,115.393032 C191.062075,115.393032 195.745366,108.054149 195.364831,98.7738644 C195.364831,98.7738644 200.822754,95.6175517 216.71231,106.537045 L225.158955,111.955034 C225.158955,111.955034 228.7876,107.211148 231.810881,105.127879 C231.810881,105.127879 223.204256,99.4639993 215.977068,96.043711 C215.977068,96.043711 210.877197,92.9660666 202.361616,93.4125479 C202.361616,93.4125479 198.430663,93.7393457 193.900106,95.8047178 C193.900106,95.8047178 191.346919,92.654928 184.218767,93.435105 C184.218767,93.435105 174.738472,94.0732278 159.214401,107.747857 C159.214401,107.747857 152.761847,112.707806 144.866494,123.809809 C144.866494,123.809809 139.059623,131.608785 133.971829,140.900252 C133.971829,140.900252 126.693731,154.446998 127.598615,164.313578 C127.598615,164.313578 127.685574,173.299504 133.090914,177.060383 C133.090914,177.060383 137.621284,180.528212 144.24924,178.794296 C144.24924,178.794296 151.832993,177.191255 159.135061,168.788084 C159.135061,168.788084 167.326962,159.167392 170.197511,150.635593 C170.197511,150.635593 173.52626,141.249421 169.31065,136.717497 C169.31065,136.717497 166.78459,133.739029 159.075045,137.912463 C159.075045,137.912463 150.418809,141.900969 146.550472,156.342164 C146.550472,156.342164 145.921327,158.292329 145.621618,161.027327 C145.32191,163.762324 145.615858,162.619932 145.615858,162.619932 Z M182.725373,143.57671 C182.725373,143.57671 174.029127,151.206489 169.350103,163.208593 C169.350103,163.208593 164.566844,174.20393 168.596077,179.096751 C168.596077,179.096751 172.136671,183.399314 179.277368,177.859565 C179.277368,177.859565 186.826128,172.899041 193.81491,160.881038 C193.81491,160.881038 195.176962,158.822616 195.483931,157.775263 C195.483931,157.775263 198.899225,157.807057 200.085336,157.386246 C200.085336,157.386246 197.242217,164.305509 196.363073,171.817648 C196.363073,171.817648 194.863709,179.698043 201.27422,180.673017 C201.27422,180.673017 207.16837,180.856304 213.206307,171.903306 C213.206307,171.903306 212.602345,180.300272 216.786635,180.300272 C216.786635,180.300272 220.77724,181.399618 226.222121,176.33043 C226.222121,176.33043 228.201252,174.513834 229.047499,173.611427 C229.047499,173.611427 227.932722,179.298367 231.0769,180.178143 C231.0769,180.178143 236.39814,181.790506 243.210985,174.626798 C243.210985,174.626798 251.725928,165.011724 255.454292,158.20767 L252.694521,158.178307 C252.694521,158.178307 243.098249,173.33126 239.369889,172.010286 C239.369889,172.010286 236.699749,171.890401 247.997754,154.43907 L257.178756,137.840208 L248.619456,137.738465 L247.442215,139.989152 C247.442215,139.989152 245.681157,136.383639 241.463974,136.872155 C241.463974,136.872155 238.903982,136.32005 230.967493,143.637681 C230.967493,143.637681 222.855249,151.597938 217.577253,161.432956 C212.299257,171.267974 208.039014,173.314241 206.957134,172.662263 C206.957134,172.662263 204.11697,172.95627 207.743871,161.700592 L211.27541,153.304001 C211.27541,153.304001 225.751224,142.847491 234.292598,132.265859 C234.292598,132.265859 241.059977,124.641129 244.839717,118.425089 L242.17845,118.685244 C242.17845,118.685244 227.36388,138.459456 214.319049,147.448736 C214.319049,147.448736 222.502073,129.626529 234.972145,113.688435 C234.972145,113.688435 248.684138,97.1827133 251.613566,98.3860472 C251.613566,98.3860472 253.601384,99.0825374 249.327649,106.796105 C249.327649,106.796105 250.963957,106.950215 252.203665,106.395866 C252.203665,106.395866 255.657582,100.315421 254.495312,97.0966809 C254.495312,97.0966809 252.880439,91.8554274 245.683191,96.9403261 C245.683191,96.9403261 229.935328,107.018292 216.226106,127.821903 C216.226106,127.821903 208.364465,139.858045 201.781154,154.011338 C201.781154,154.011338 199.635324,155.035873 197.105086,155.035874 C197.105086,155.035874 202.96431,144.513903 199.22412,138.389881 C199.22412,138.389881 195.92803,133.983517 188.101871,139.41236 C188.101871,139.41236 184.040482,142.163531 183.382927,142.900606 C182.725373,143.637681 182.725373,143.57671 182.725373,143.57671 Z M192.097908,100.357513 C192.097908,100.357513 186.318069,101.042075 176.886543,115.601911 C176.886543,115.601911 172.517659,121.782463 174.583061,125.182225 C174.583061,125.182225 176.273622,127.181192 180.937247,123.509517 C180.937247,123.509517 188.585932,116.58987 191.529466,106.762566 C191.529466,106.762566 192.538636,102.959712 192.318272,101.085177 L192.259859,100.582858 L192.097908,100.357513 Z M189.61666,151.488936 C189.61666,151.488936 186.149617,147.678711 189.775509,142.898381 C189.775509,142.898381 192.683004,138.430561 195.475156,140.257524 C195.475156,140.257524 197.240979,141.049893 196.303229,146.176616 C196.303229,146.176616 195.456848,150.997659 193.37045,153.80839 C193.37045,153.80839 192.116309,154.56351 190.006023,151.995 L189.803582,151.722173 L189.61666,151.488936 Z M185.434812,149.683938 C185.434812,149.683938 187.481024,153.898513 192.349741,156.07556 C192.349741,156.07556 187.825574,165.94283 181.64247,170.087222 C181.64247,170.087222 177.057699,172.847933 176.849209,167.680233 C176.849209,167.680233 176.534272,161.643268 183.694642,152.032083 L184.946959,150.195076 L185.434812,149.683938 Z M245.820011,142.602096 L233.84848,162.145439 C233.84848,162.145439 228.131196,171.942191 224.201497,170.717961 C224.201497,170.717961 221.636319,170.63036 225.436419,162.508201 C225.436419,162.508201 231.51455,150.867105 241.102955,142.459245 C241.102955,142.459245 242.594298,140.928938 244.545032,141.280425 C244.974053,141.357727 245.425294,141.526048 245.887778,141.821685 L245.904145,142.234518 L245.820011,142.602096 Z M236.03886,116.554653 L238.992788,113.022746 L241.946716,109.490839 C241.946716,109.490839 258.071818,112.423594 275.5,94.7202073 C275.5,94.7202073 267.455758,111.785109 249.683684,116.038587 C249.683684,116.038587 242.342322,118.041553 236.732869,116.937272 L236.434419,116.846952 L236.03886,116.554653 Z" id="Oval-1" sketch:type="MSShapeGroup"></path>
        </g>
    </g>
</svg>