<?xml version="1.0" encoding="UTF-8" standalone="no"?>
<svg width="280px" height="280px" viewBox="0 0 280 280" version="1.1" xmlns="http://www.w3.org/2000/svg" xmlns:xlink="http://www.w3.org/1999/xlink" xmlns:sketch="http://www.bohemiancoding.com/sketch/ns">
    <title>google</title>
    <description>Created with Sketch (http://www.bohemiancoding.com/sketch)</description>
    <defs></defs>
    <g id="Page-1" stroke="none" stroke-width="1" fill="none" fill-rule="evenodd" sketch:type="MSPage">
        <g id="google" sketch:type="MSArtboardGroup" fill="#FFFFFF">
            <path d="M276.481268,155.956028 L274.089966,158.179535 L271.698664,160.403042 C271.698664,160.403042 266.86525,164.230691 257.445646,163.734838 C257.445646,163.734838 247.977439,163.702504 242.747986,155.201102 C242.747986,155.201102 238.628129,150.023462 238.628127,140.45946 C238.628127,140.45946 238.509032,133.211046 243.053652,127.786384 C243.053652,127.786384 247.758534,121.984962 255.040486,120.632963 C255.040486,120.632963 262.217807,118.819453 269.349537,123.090338 C269.349537,123.090338 273.893955,126.120486 275.016201,131.553181 L253.782276,140.222479 L246.835511,140.870361 C246.835511,140.870361 248.606445,150.926201 255.745004,155.767849 C255.745004,155.767849 261.848879,160.472128 270.464353,158.403362 L272.754135,157.612688 L276.481268,155.956028 Z M246.713105,140.492597 L264.51291,132.75315 C264.51291,132.75315 266.265366,132.12776 265.584045,129.623892 C265.584045,129.623892 264.484994,125.519999 260.271949,123.825784 C260.271949,123.825784 255.836784,121.948309 251.47673,124.722396 C251.47673,124.722396 246.850674,127.238515 246.521612,133.430254 C246.521612,133.430254 246.38354,135.200283 246.548322,139.274855 L246.601743,139.542061 L246.713105,140.492597 Z M218.594572,162.290256 L234.632682,162.20671 L237.908145,160.196687 C237.908145,160.196687 230.717169,160.423326 230.099009,158.233257 C230.099009,158.233257 229.73711,157.770843 229.737111,155.384361 C229.737112,152.997879 229.774466,118.09887 229.774466,118.09887 C229.774466,118.09887 229.69815,101.517812 231.864721,99.9613665 C231.864721,99.9613665 232.930936,99.1150619 234.529154,98.0910218 L221.750072,98.0910218 L214.881397,101.341883 L221.84127,101.341883 C221.84127,101.341883 220.570299,150.174086 221.205785,157.63016 C221.205785,157.63016 221.270251,158.815769 219.932412,160.213356 L219.676251,160.586803 L218.594572,162.290256 Z M197.380329,165.017148 C197.380329,165.017148 190.502449,163.768578 183.157234,167.499226 C175.812019,171.229873 178.250717,178.484312 178.250717,178.484312 C178.250717,178.484312 179.926858,184.637792 189.523596,186.376392 C189.523596,186.376392 199.802959,188.1415 205.314181,182.467807 C205.314181,182.467807 209.708376,176.69912 204.971763,171.152955 C204.971763,171.152955 203.062658,168.972928 198.318815,165.657399 L198.024697,165.325224 L197.380329,165.017148 Z M182.794934,130.836614 C182.794934,130.836614 183.997112,124.594366 191.082451,124.325051 C198.167789,124.055736 201.376476,135.498317 201.376476,135.498317 C201.376476,135.498317 203.924225,144.284497 199.542482,147.857092 C199.542482,147.857092 194.650425,152.933713 188.157941,148.207342 C188.157941,148.207342 182.177979,142.865824 182.486456,132.97788 L182.609968,131.735637 L182.794934,130.836614 Z M209.408736,124.548978 L215.213974,121.201115 L194.01399,121.219391 C194.01399,121.219391 182.787704,121.065353 176.843892,130.050559 C170.90008,139.035765 177.140119,146.988495 177.140119,146.988495 C177.140119,146.988495 182.559358,154.252575 192.236429,152.463365 C192.236429,152.463365 190.49803,155.270188 191.775721,157.923776 C191.775721,157.923776 192.227793,159.787694 194.148948,162.208719 C194.148948,162.208719 185.343889,162.132001 178.739542,165.348319 C172.135194,168.564637 170.870156,172.650958 170.870156,172.650958 C170.870156,172.650958 167.712682,179.827474 173.092759,184.988846 C178.472837,190.150218 184.603423,190.130135 184.603423,190.130135 C184.603423,190.130135 196.680231,191.615686 205.08684,186.514965 C205.08684,186.514965 212.740533,182.272599 213.226344,173.627401 C213.226344,173.627401 214.309428,166.091999 204.576727,159.754356 C194.844027,153.416713 204.134697,148.433479 204.134697,148.433479 C204.134697,148.433479 210.208649,144.604825 210.208648,136.607309 C210.208648,136.607309 210.510298,129.748107 203.825818,124.619068 L208.094896,124.619068 L209.408736,124.548978 Z M133.338546,134.114185 C133.338546,134.114185 133.962731,125.952992 141.881119,123.487583 C141.881119,123.487583 148.830495,121.311773 153.651859,126.333568 C153.651859,126.333568 157.873339,130.756281 159.719383,139.188798 C159.719383,139.188798 163.554463,153.900314 154.12542,159.367353 C154.12542,159.367353 143.821956,165.496532 137.091285,152.940742 C137.091285,152.940742 133.54962,147.346778 133.12225,136.182952 L133.187721,134.894617 L133.338546,134.114185 Z M126.811921,132.193633 C126.811921,132.193633 132.342823,120.079272 147.013571,120.07927 C161.684319,120.079268 166.793677,130.883207 166.793677,130.883207 C166.793677,130.883207 173.749882,143.086538 165.020535,155.199093 C165.020535,155.199093 157.637764,163.691057 147.674107,163.691057 C147.674107,163.691057 136.454649,164.533144 129.595447,156.513536 C129.595447,156.513536 122.779825,149.104859 124.538306,138.247099 C124.538306,138.247099 124.908841,135.783699 126.085714,133.634801 L126.419697,132.879071 L126.811921,132.193633 Z M82.8191566,134.18046 C82.8191566,134.18046 83.4433413,126.019267 91.3617295,123.553858 C91.3617295,123.553858 98.3111055,121.378048 103.132469,126.399842 C103.132469,126.399842 107.35395,130.822555 109.199994,139.255073 C109.199994,139.255073 113.035073,153.966589 103.60603,159.433628 C103.60603,159.433628 93.3025662,165.562807 86.5718958,153.007017 C86.5718958,153.007017 83.0302305,147.413053 82.602861,136.249226 L82.6683321,134.960892 L82.8191566,134.18046 Z M76.2957446,132.193633 C76.2957446,132.193633 81.8266467,120.079272 96.4973949,120.07927 C111.168143,120.079268 116.277501,130.883207 116.277501,130.883207 C116.277501,130.883207 123.233706,143.086538 114.504359,155.199093 C114.504359,155.199093 107.121588,163.691057 97.1579309,163.691057 C97.1579309,163.691057 85.9384725,164.533144 79.0792705,156.513536 C79.0792705,156.513536 72.2636488,149.104859 74.0221301,138.247099 C74.0221301,138.247099 74.3926644,135.783699 75.5695376,133.634801 L75.9035206,132.879071 L76.2957446,132.193633 Z M66.9070681,106.978021 L59.5005996,114.077518 C59.5005996,114.077518 58.2303397,114.386297 56.2033464,114.801215 L58.4452296,111.244788 C58.4452296,111.244788 48.5552776,99.7247867 32.8046577,103.425912 C17.0540379,107.127038 14.6044949,122.956183 14.6044949,122.956183 C14.6044949,122.956183 12.6227892,131.797292 15.5120529,139.926252 C18.4013167,148.055211 21.4036485,151.233072 21.4036485,151.233072 C21.4036485,151.233072 29.8524331,160.883231 42.4011962,162.431241 C42.4011962,162.431241 50.1058989,163.483398 57.531245,160.295396 L57.5410857,145.703574 L43.904821,146.448459 L50.9706791,142.559957 L70.36097,142.533648 L67.7571883,145.086218 C67.7571883,145.086218 67.1960651,145.563796 67.1960648,146.432191 C67.1960645,147.300586 66.97515,161.483516 66.97515,161.483516 C66.97515,161.483516 48.216274,166.950554 36.6204581,166.110676 C36.6204581,166.110676 24.2325626,166.189804 14.8860608,158.016359 C14.8860608,158.016359 6.21816919,150.847072 4.55668922,137.028453 C4.55668922,137.028453 2.68835199,124.380681 11.4544513,112.699311 C11.4544513,112.699311 17.2618971,104.570451 28.1971792,101.236647 C28.1971792,101.236647 38.6586969,97.8622728 51.3305693,100.475495 C51.3305693,100.475495 59.2340945,101.73722 65.325921,105.747023 L65.8237825,106.091148 L66.9070681,106.978021 Z" id="Oval-1" sketch:type="MSShapeGroup"></path>
        </g>
    </g>
</svg>