<?xml version="1.0" encoding="UTF-8" standalone="no"?>
<svg width="280px" height="280px" viewBox="0 0 280 280" version="1.1" xmlns="http://www.w3.org/2000/svg" xmlns:xlink="http://www.w3.org/1999/xlink" xmlns:sketch="http://www.bohemiancoding.com/sketch/ns">
    <title>nissan</title>
    <description>Created with Sketch (http://www.bohemiancoding.com/sketch)</description>
    <defs></defs>
    <g id="Page-1" stroke="none" stroke-width="1" fill="none" fill-rule="evenodd" sketch:type="MSPage">
        <g id="nissan" sketch:type="MSArtboardGroup" stroke="#FFFFFF" fill="#FFFFFF">
            <path d="M55.4471147,117.034034 C55.4471147,117.034034 43.8712349,118.581896 42.8049347,120.248488 C42.8049347,120.248488 40.5406159,121.437706 40.5406103,140.418345 C40.5406103,140.418345 40.1250163,152.120167 41.9528135,161.595781 C41.9528135,161.595781 42.5003868,163.291784 44.2786601,163.756361 C44.2786601,163.756361 50.0377544,165.472244 55.4305216,165.946623 C55.4305216,165.946623 62.625046,203.781806 102.053905,222.417155 C102.053905,222.417155 130.745734,240.297078 172.512941,224.764545 C172.512941,224.764545 200.315887,212.473151 213.522485,188.640877 C213.522485,188.640877 221.475962,174.452509 223.361447,166.11301 C223.361447,166.11301 231.89262,164.726089 235.046076,163.662138 C235.046076,163.662138 236.672463,163.302949 237.120983,161.376292 C237.120983,161.376292 238.500005,155.883889 238.5,141.250552 C238.5,141.250552 238.364196,128.97223 236.931566,121.179547 C236.931566,121.179547 236.791678,119.984067 235.725373,119.615074 C235.725373,119.615074 228.603605,117.404933 223.832437,117.009798 C223.832437,117.009798 218.748562,96.9072043 205.859266,82.2836708 C205.859266,82.2836708 189.350628,61.8812541 163.901616,54.4706356 C163.901616,54.4706356 144.23416,46.8549614 117.389789,53.8437571 C117.389789,53.8437571 94.4562932,59.6248166 76.6189307,78.7173804 C58.7815675,97.8099436 55.4471147,117.034034 55.4471147,117.034034 Z M79.7121582,114.918945 C79.7121582,114.918945 87.2379545,96.7316909 104.435789,86.9945351 C104.435789,86.9945351 117.202538,77.8462292 137.37493,77.0209445 C137.37493,77.0209445 154.097184,75.9512119 170.019434,84.2550094 C170.019434,84.2550094 183.369695,91.0203643 191.52954,102.377335 C191.52954,102.377335 196.600821,108.829045 199.374251,114.749573 C199.374251,114.749573 168.403414,113.571553 137.89663,113.571554 C137.89663,113.571554 118.162993,113.447571 104.022657,114.098571 C104.022657,114.098571 92.1859337,114.222555 80.8344009,114.869713 L79.7121582,114.918945 Z M174.564211,193.819836 C174.564211,193.819836 161.797462,202.968142 141.62507,203.793427 C141.62507,203.793427 124.902816,204.863159 108.980566,196.559362 C108.980566,196.559362 95.6303053,189.794007 87.4704599,178.437036 C87.4704599,178.437036 82.3991792,171.985326 79.6257485,166.064799 C79.6257485,166.064799 110.596586,167.242818 141.10337,167.242817 C141.10337,167.242817 160.837007,167.3668 174.977343,166.7158 C174.977343,166.7158 186.814066,166.591816 198.165599,165.944658 L199.607666,165.870361 C199.607666,165.870361 191.762046,184.08268 174.564211,193.819836 Z M58.9527557,152.854427 C58.9527557,152.854427 58.2844312,152.923202 58.2844311,152.224341 C58.2844311,151.525481 58.2986697,129.719116 58.2986697,129.719116 C58.2986697,129.719116 58.2474362,129.143709 59.0100915,129.143713 L68.1256623,129.143713 C68.1256623,129.143713 68.6700956,129.256182 69.3118499,130.045793 C69.9536042,130.835405 79.5686041,146.440836 79.5686041,146.440836 L79.5686041,129.784654 C79.5686041,129.784654 79.6259399,129.237566 80.1302662,129.237566 L85.0572277,129.237566 C85.0572277,129.237566 85.5446232,129.320561 85.5446232,129.683177 L85.5446232,151.716504 C85.5446232,151.716504 85.6756946,152.684043 84.9520684,152.684043 L76.3046544,152.684043 C76.3046544,152.684043 75.2921914,152.85753 74.4925412,151.678671 C73.6928909,150.499813 64.3690196,134.972464 64.3690196,134.972464 L64.6151441,152.058611 C64.6151441,152.058611 64.5617493,152.737175 63.9549559,152.737175 C63.3481624,152.737175 58.9527557,152.854427 58.9527557,152.854427 Z M90.7228769,152.855477 C90.7228769,152.855477 90.2979041,152.898097 90.2979041,152.365281 L90.2979041,129.684556 C90.2979041,129.684556 90.2485018,129.150243 90.7173121,129.150244 C91.1861223,129.150245 95.871239,129.150244 95.871239,129.150244 C95.871239,129.150244 96.224356,129.06461 96.2243559,129.513497 C96.2243558,129.962384 96.2243559,152.179752 96.2243559,152.179752 C96.2243559,152.179752 96.2482054,152.849052 95.7683789,152.849051 C95.2885524,152.84905 90.7228769,152.855477 90.7228769,152.855477 Z M124.427871,129.143713 L106.766977,129.143713 C106.766977,129.143713 103.746069,129.143588 102.0236,131.491405 C102.0236,131.491405 100.999543,132.939744 100.999543,134.827948 L100.972999,137.603505 C100.972999,137.603505 100.757722,139.890823 102.92065,141.088169 C102.92065,141.088169 105.024138,142.417011 108.131108,142.497134 L118.463881,143.494985 C118.463881,143.494985 119.065894,143.519234 119.090533,144.037721 C119.115173,144.556209 119.072117,145.788303 119.072117,145.788303 C119.072117,145.788303 119.11314,146.258417 118.658456,146.258417 L101.530051,146.284166 C101.530051,146.284166 100.979095,146.300666 100.979095,146.739155 L100.979095,150.821533 C100.979095,150.821533 100.936167,151.658534 101.657058,151.658534 L120.008158,151.670659 C120.008158,151.670659 123.530821,151.645034 124.962443,148.9646 C124.962443,148.9646 125.34956,148.75598 125.673174,145.818553 C125.673174,145.818553 126.515102,142.389887 124.673757,139.996696 C124.673757,139.996696 124.134993,138.534982 120.71673,138.069243 C120.71673,138.069243 118.388058,137.529381 108.192579,136.720651 C108.192579,136.720651 107.660039,136.698152 107.660039,136.038918 C107.660039,135.379684 107.625239,134.52558 107.625239,134.52558 C107.625239,134.52558 107.545225,134.099216 108.268275,134.099216 L124.196465,134.055467 C124.196465,134.055467 124.741324,134.14909 124.741324,133.651727 C124.741325,133.154364 124.747421,129.568452 124.747421,129.568452 L124.427871,129.143713 Z M151.697332,129.143713 L134.036438,129.143713 C134.036438,129.143713 131.01553,129.143588 129.293061,131.491405 C129.293061,131.491405 128.269004,132.939744 128.269005,134.827948 L128.24246,137.603505 C128.24246,137.603505 128.027183,139.890823 130.190111,141.088169 C130.190111,141.088169 132.293599,142.417011 135.400569,142.497134 L145.733342,143.494985 C145.733342,143.494985 146.335355,143.519234 146.359994,144.037721 C146.384634,144.556209 146.341578,145.788303 146.341578,145.788303 C146.341578,145.788303 146.382601,146.258417 145.927917,146.258417 L128.799512,146.284166 C128.799512,146.284166 128.248556,146.300666 128.248556,146.739155 L128.248556,150.821533 C128.248556,150.821533 128.205628,151.658534 128.926519,151.658534 L147.277619,151.670659 C147.277619,151.670659 150.800282,151.645034 152.231904,148.9646 C152.231904,148.9646 152.619021,148.75598 152.942635,145.818553 C152.942635,145.818553 153.784563,142.389887 151.943218,139.996696 C151.943218,139.996696 151.404454,138.534982 147.986191,138.069243 C147.986191,138.069243 145.657519,137.529381 135.46204,136.720651 C135.46204,136.720651 134.9295,136.698152 134.9295,136.038918 C134.9295,135.379684 134.8947,134.52558 134.8947,134.52558 C134.8947,134.52558 134.814686,134.099216 135.537736,134.099216 L151.465926,134.055467 C151.465926,134.055467 152.010785,134.14909 152.010785,133.651727 C152.010786,133.154364 152.016882,129.568452 152.016882,129.568452 L151.697332,129.143713 Z M154.792776,151.486577 C154.792776,151.486577 154.054625,151.647759 154.423701,150.783467 L163.492278,129.801022 C163.492278,129.801022 163.74579,129.137673 164.425091,129.146732 L173.633502,129.143713 C173.633502,129.143713 174.1487,129.247015 174.466973,129.945595 L183.766553,150.851916 C183.766553,150.851916 184.348649,151.670659 183.498957,151.670659 L177.614115,151.60825 C177.614115,151.60825 177.228692,151.691923 176.82931,151.040653 C176.429928,150.389383 175.132064,147.065717 175.132064,147.065717 L162.743941,147.039923 L161.255565,150.91898 C161.255565,150.91898 161.040533,151.504821 160.47076,151.504821 C159.900988,151.504821 154.792776,151.486577 154.792776,151.486577 Z M188.186289,152.854427 C188.186289,152.854427 187.517964,152.923202 187.517964,152.224341 C187.517964,151.525481 187.532203,129.719116 187.532203,129.719116 C187.532203,129.719116 187.480969,129.143709 188.243624,129.143713 L197.359195,129.143713 C197.359195,129.143713 197.903629,129.256182 198.545383,130.045793 C199.187137,130.835405 208.802137,146.440836 208.802137,146.440836 L208.802137,129.784654 C208.802137,129.784654 208.859473,129.237566 209.363799,129.237566 L214.290761,129.237566 C214.290761,129.237566 214.778156,129.320561 214.778156,129.683177 L214.778156,151.716504 C214.778156,151.716504 214.909228,152.684043 214.185601,152.684043 L205.538187,152.684043 C205.538187,152.684043 204.525724,152.85753 203.726074,151.678671 C202.926424,150.499813 193.602553,134.972464 193.602553,134.972464 L193.848677,152.058611 C193.848677,152.058611 193.795282,152.737175 193.188489,152.737175 C192.581695,152.737175 188.186289,152.854427 188.186289,152.854427 Z M164.991018,142.185629 L173.290419,142.185629 L170.298095,134.174331 C170.298095,134.174331 170.311895,133.903542 169.942384,133.903542 L168.503893,133.886228 C168.503893,133.886228 168.26166,133.972802 168.100623,134.271971 C167.939586,134.57114 164.991018,142.185629 164.991018,142.185629 Z" id="Oval-1" sketch:type="MSShapeGroup"></path>
        </g>
    </g>
</svg>