<?xml version="1.0" encoding="UTF-8" standalone="no"?>
<svg width="280px" height="280px" viewBox="0 0 280 280" version="1.1" xmlns="http://www.w3.org/2000/svg" xmlns:xlink="http://www.w3.org/1999/xlink" xmlns:sketch="http://www.bohemiancoding.com/sketch/ns">
    <title>pg</title>
    <description>Created with Sketch (http://www.bohemiancoding.com/sketch)</description>
    <defs></defs>
    <g id="Page-1" stroke="none" stroke-width="1" fill="none" fill-rule="evenodd" sketch:type="MSPage">
        <g id="pg" sketch:type="MSArtboardGroup" fill="#FFFFFF">
            <path d="M227.893425,137.431098 L250.430902,137.431098 C250.430902,137.431098 243.838654,139.89128 242.874566,144.046246 L231.016038,180.626347 C231.016038,180.626347 205.577119,194.482463 183.894259,185.715275 C183.894259,185.715275 165.208926,181.364669 163.659441,156.638139 C163.659441,156.638139 161.478034,133.502662 178.036501,111.86671 C194.594966,90.2307584 222.865897,90.1155863 222.865897,90.1155863 C222.865897,90.1155863 239.092573,89.7544337 252.962039,94.3666563 L248.838344,107.016135 C248.838344,107.016135 234.212635,92.2603797 216.118034,101.196894 C216.118034,101.196894 204.799135,104.79812 195.089977,126.061478 C195.089977,126.061478 184.846909,148.757624 186.857843,168.122168 C186.857843,168.122168 189.924774,183.788624 206.169759,180.494776 L217.230474,145.421446 C217.230474,145.421446 218.955005,139.502289 211.792216,137.422708 L225.828262,137.422708 L227.893425,137.431098 Z M125.049527,151.804344 C125.049527,151.804344 127.929974,163.963769 136.080114,174.61261 C136.080114,174.61261 123.566591,181.881036 116.085364,176.903467 C116.085364,176.903467 108.435765,172.327665 113.276424,161.694079 C113.276424,161.694079 115.508931,157.308577 123.082449,152.659554 L123.46286,152.394315 L125.049527,151.804344 Z M136.625274,139.5 C136.625274,139.5 148.294647,131.955276 150.125768,122.926662 C150.125768,122.926662 151.723304,119.476267 147.650713,118.332745 C147.650713,118.332745 143.840881,116.797372 139.710513,123.0548 C139.710513,123.0548 136.461097,127.004212 136.461097,136.676759 L136.442601,137.293616 L136.625274,139.5 Z M123.886175,144.295277 C123.886175,144.295277 116.94477,145.862553 110.144266,149.831108 C106.026645,152.234018 101.960681,155.517274 99.5185092,159.866008 C93.0429401,171.396945 100.459717,180.798724 100.459717,180.798724 C100.459717,180.798724 107.294913,190.657759 123.383155,188.086218 C123.383155,188.086218 133.211297,185.806421 141.062069,180.010443 C141.062069,180.010443 146.035059,185.172974 149.674042,186.852504 L173.650214,186.852504 C173.460127,187.332642 159.17078,180.99055 150.771609,172.623032 C150.771609,172.623032 159.304644,165.523932 159.30464,153.320268 L147.399915,153.320268 C147.399915,153.320268 152.542666,157.240314 146.417571,166.488402 C146.417571,166.488402 139.531654,157.2979 137.89865,146.232227 C137.89865,146.232227 162.053894,136.803753 161.043662,124.454027 C161.043662,124.454027 160.706536,112.896394 145.697936,112.896394 C145.697936,112.896394 134.448446,112.73889 127.086967,125.003954 C127.086967,125.003954 122.382836,134.543069 123.830877,142.624138 L123.886175,144.295277 Z M83.2451142,98.7977303 L89.8938228,98.6823676 C89.8938228,98.6823676 98.1244323,98.3902423 99.3976167,107.757317 C100.670802,117.124392 93.9860545,130.008219 93.9860545,130.008219 C93.9860545,130.008219 89.585871,139.344785 82.1137965,141.943021 C82.1137965,141.943021 78.5621489,144.866561 69.1943115,143.74535 L82.9257215,100.135176 L83.2451142,98.7977303 Z M26.4574623,186.973778 L61.105952,187.48862 C61.105952,187.48862 56.0578279,185.613069 58.0691465,178.867494 C60.0804629,172.121919 66.8790477,151.027886 66.8790477,151.027886 C66.8790477,151.027886 93.3987544,154.490295 109.210125,141.552504 C109.210125,141.552504 122.216944,132.723534 124.929207,115.300135 C127.641471,97.8767351 111.54255,93.2934966 111.54255,93.2934966 C111.54255,93.2934966 108.65524,91.7367667 100.652687,91.2486202 L55.8385456,91.1834069 C55.8385456,91.1834069 59.8093126,92.9048862 58.070672,99.2740546 L32.7377728,180.265195 C32.7377728,180.265195 31.0223953,184.281344 29.1819302,185.280901 C27.3414652,186.280457 26.4574623,186.973778 26.4574623,186.973778 Z" id="Oval-1" sketch:type="MSShapeGroup"></path>
        </g>
    </g>
</svg>