<?xml version="1.0" encoding="UTF-8" standalone="no"?>
<svg width="20px" height="20px" viewBox="0 0 20 20" version="1.1" xmlns="http://www.w3.org/2000/svg" xmlns:xlink="http://www.w3.org/1999/xlink" xmlns:sketch="http://www.bohemiancoding.com/sketch/ns">
    <title>copy</title>
    <description>Created with Sketch (http://www.bohemiancoding.com/sketch)</description>
    <defs></defs>
    <g id="Page-1" stroke="none" stroke-width="1" fill="none" fill-rule="evenodd" sketch:type="MSPage">
        <path d="M17.5,13.52 L17.5,6.25 C17.5,4.17875 15.82125,2.5 13.75,2.5 L3.98,2.5 C4.49625,1.04625 5.86875,0 7.5,0 L16.25,0 C18.32125,0 20,1.67875 20,3.75 L20,10 C20,11.63125 18.9525,13.00375 17.5,13.52 C17.5,13.52 18.9525,13.00375 17.5,13.52 L17.5,13.52 L17.5,13.52 L17.5,13.52 L17.5,13.52 Z M16.25,7.5 L16.25,12.5 C16.25,14.57 14.57125,16.25 12.5,16.25 L8.75,16.25 L6.25,20 L3.75,16.25 C1.67875,16.25 0,14.57 0,12.5 L0,7.5 C0,5.42875 1.67875,3.75 3.75,3.75 L12.5,3.75 C14.57125,3.75 16.25,5.42875 16.25,7.5 C16.25,7.5 16.25,5.42875 16.25,7.5 L16.25,7.5 L16.25,7.5 L16.25,7.5 L16.25,7.5 Z M2.5,7.5 L2.5,12.5 C2.5,13.19125 3.05875,13.75 3.75,13.75 L4.58375,13.75 L6.25,16.25 L7.91625,13.75 L12.5,13.75 C13.19125,13.75 13.75,13.19125 13.75,12.5 L13.75,7.5 C13.75,6.81 13.19125,6.25 12.5,6.25 L3.75,6.25 C3.05875,6.25 2.5,6.81 2.5,7.5 C2.5,7.5 2.5,6.81 2.5,7.5 L2.5,7.5 L2.5,7.5 L2.5,7.5 L2.5,7.5 Z M2.5,7.5" id="Shape" fill="#FCF9F9" sketch:type="MSShapeGroup"></path>
    </g>
</svg>