<?xml version="1.0" encoding="UTF-8" standalone="no"?>
<svg width="20px" height="20px" viewBox="0 0 20 20" version="1.1" xmlns="http://www.w3.org/2000/svg" xmlns:xlink="http://www.w3.org/1999/xlink" xmlns:sketch="http://www.bohemiancoding.com/sketch/ns">
    <title>delete</title>
    <description>Created with Sketch (http://www.bohemiancoding.com/sketch)</description>
    <defs></defs>
    <g id="Page-1" stroke="none" stroke-width="1" fill="none" fill-rule="evenodd" sketch:type="MSPage">
        <path d="M16.25,20 L3.75,20 C1.67875,20 0,18.32125 0,16.25 L0,3.75 C0,1.67875 1.67875,0 3.75,0 L16.25,0 C18.32,0 20,1.67875 20,3.75 L20,16.25 C20,18.32125 18.32,20 16.25,20 L16.25,20 L16.25,20 L16.25,20 L16.25,20 Z M17.5,3.75 C17.5,3.05875 16.94125,2.5 16.25,2.5 L3.75,2.5 C3.06,2.5 2.5,3.05875 2.5,3.75 L2.5,16.25 C2.5,16.94125 3.06,17.5 3.75,17.5 L16.25,17.5 C16.94125,17.5 17.5,16.94125 17.5,16.25 L17.5,3.75 L17.5,3.75 L17.5,3.75 L17.5,3.75 Z M13.535,13.535 C13.04625,14.02375 12.25625,14.02375 11.7675,13.535 L10,11.7675 L8.2325,13.535 C7.74375,14.02375 6.9525,14.02375 6.46375,13.535 C5.97625,13.04625 5.97625,12.25625 6.46375,11.7675 L8.2325,10 L6.46375,8.2325 C5.97625,7.74375 5.97625,6.95375 6.46375,6.465 C6.9525,5.97625 7.74375,5.97625 8.2325,6.465 L10,8.2325 L11.7675,6.465 C12.25625,5.97625 13.04625,5.97625 13.535,6.465 C14.02375,6.95375 14.02375,7.74375 13.535,8.2325 L11.7675,10 L13.535,11.7675 C14.02375,12.25625 14.02375,13.0475 13.535,13.535 C13.535,13.535 14.02375,13.0475 13.535,13.535 L13.535,13.535 L13.535,13.535 L13.535,13.535 L13.535,13.535 Z M13.535,13.535" id="Shape" fill="#FCF9F9" sketch:type="MSShapeGroup"></path>
    </g>
</svg>