<?xml version="1.0" encoding="UTF-8" standalone="no"?>
<svg width="20px" height="20px" viewBox="0 0 20 20" version="1.1" xmlns="http://www.w3.org/2000/svg" xmlns:xlink="http://www.w3.org/1999/xlink" xmlns:sketch="http://www.bohemiancoding.com/sketch/ns">
    <title>left</title>
    <description>Created with Sketch (http://www.bohemiancoding.com/sketch)</description>
    <defs></defs>
    <g id="Page-1" stroke="none" stroke-width="1" fill="none" fill-rule="evenodd" sketch:type="MSPage">
        <path d="M0,10 C0,15.5225 4.4775,20 10,20 C15.5225,20 20,15.5225 20,10 C20,4.4775 15.5225,0 10,0 C4.4775,0 0,4.4775 0,10 C0,10 0,4.4775 0,10 L0,10 L0,10 L0,10 L0,10 Z M17.5757576,10 C17.5757576,14.1830808 14.1830808,17.5757576 10,17.5757576 C5.81691919,17.5757576 2.42424243,14.1830808 2.42424243,10 C2.42424243,5.81691919 5.81691919,2.42424243 10,2.42424243 C14.1830808,2.42424243 17.5757576,5.81691919 17.5757576,10 C17.5757576,10 17.5757576,5.81691919 17.5757576,10 L17.5757576,10 L17.5757576,10 L17.5757576,10 L17.5757576,10 Z M5.22578617,8.83976275 L7.80122182,6.41522547 C8.16950912,6.06972891 8.72322775,5.9654738 9.206122,6.15216318 C9.68644075,6.33885254 10.0006438,6.78254287 10.0006438,7.27229941 L10.0006438,8.48456808 L13.8637973,8.48456808 C14.5759053,8.48456808 15.1515152,9.02645217 15.1515152,9.69683675 C15.1515152,10.3672213 14.5759053,10.9091053 13.8637973,10.9091053 L10.0006438,10.9091053 L10.0006438,12.121374 C10.0006438,12.6111306 9.68644075,13.0548209 9.206122,13.2415102 C8.7245155,13.4281996 8.16950912,13.3251567 7.80122182,12.9784479 L5.22578617,10.5539107 C4.97468119,10.3175182 4.84848485,10.0071775 4.84848485,9.69683675 C4.84848485,9.38649592 4.97468119,9.07615517 5.22578617,8.83976275 C5.22578617,8.83976275 4.97468119,9.07615517 5.22578617,8.83976275 L5.22578617,8.83976275 L5.22578617,8.83976275 L5.22578617,8.83976275 L5.22578617,8.83976275 Z M5.22578617,8.83976275" id="Shape" fill="#FCF9F9" sketch:type="MSShapeGroup"></path>
    </g>
</svg>