<?xml version="1.0" encoding="UTF-8" standalone="no"?>
<svg width="50px" height="66px" viewBox="0 0 50 66" version="1.1" xmlns="http://www.w3.org/2000/svg" xmlns:xlink="http://www.w3.org/1999/xlink" xmlns:sketch="http://www.bohemiancoding.com/sketch/ns">
    <title>note</title>
    <description>Created with Sketch (http://www.bohemiancoding.com/sketch)</description>
    <defs></defs>
    <g id="Page-1" stroke="none" stroke-width="1" fill="none" fill-rule="evenodd" sketch:type="MSPage">
        <g id="note" sketch:type="MSArtboardGroup" fill="#FFFFFF">
            <g sketch:type="MSLayerGroup" transform="translate(1.000000, 1.000000)">
                <path d="M44,64 L4,64 C1.788,64 0,62.212 0,60 L0,4 C0,1.788 1.788,0 4,0 L32,0 L48,16 L48,60 C48,62.212 46.212,64 44,64 L44,64 L44,64 L44,64 Z M28.8857143,6.19354839 L6.17142857,6.19354839 L6.17142857,58.4946237 L42.5142857,58.4946237 L42.5142857,19.2688172 L28.8857143,19.2688172 L28.8857143,6.19354839 Z M28.8857143,6.19354839" id="shape" sketch:type="MSShapeGroup"></path>
                <path d="M17.5220399,35.9139785 L17.5220399,25.5569892 L15.1991152,25.5569892 L15.1991152,28.9452043 C15.1991152,29.8181505 15.2287066,30.8834409 15.2287066,30.8834409 L15.1991152,30.8834409 C15.1991152,30.8834409 14.8292227,29.8477419 14.4889217,29.107957 L12.8761905,25.5569892 L10.3609217,25.5569892 L10.3609217,35.9139785 L12.6690507,35.9139785 L12.6690507,32.0818925 C12.6690507,31.2385376 12.6394593,30.2472258 12.6394593,30.2472258 L12.6690507,30.2472258 C12.6690507,30.2472258 12.9649647,31.1941505 13.3052657,31.9487312 L15.0807496,35.9139785 L17.5220399,35.9139785 Z M22.0643195,36.1211183 C24.9494808,36.1211183 25.5709002,33.4874839 25.5709002,30.7354839 C25.5709002,27.9834839 24.9494808,25.3498495 22.0643195,25.3498495 C19.1939539,25.3498495 18.5577389,27.9834839 18.5577389,30.7354839 C18.5577389,33.4874839 19.1939539,36.1211183 22.0643195,36.1211183 C22.0643195,36.1211183 19.1939539,36.1211183 22.0643195,36.1211183 Z M22.0643195,33.7538065 C21.1765776,33.7538065 21.0138249,32.6293333 21.0138249,30.7354839 C21.0138249,28.8416344 21.1617819,27.7171613 22.0643195,27.7171613 C22.9816528,27.7171613 23.1148141,28.8416344 23.1148141,30.7354839 C23.1148141,32.6293333 22.9668571,33.7538065 22.0643195,33.7538065 Z M30.1575668,35.9139785 L30.1575668,27.9243011 L31.6815238,27.9243011 L31.6815238,25.5569892 L26.1627281,25.5569892 L26.1627281,27.9243011 L27.6866851,27.9243011 L27.6866851,35.9139785 L30.1575668,35.9139785 Z M38.4727496,35.9139785 L38.4727496,33.6650323 L35.1733088,33.6650323 L35.1733088,31.9487312 L37.9253088,31.9487312 L37.9253088,29.7885591 L35.1733088,29.7885591 L35.1733088,27.8059355 L38.4727496,27.8059355 L38.4727496,25.5569892 L32.7172227,25.5569892 L32.7172227,35.9139785 L38.4727496,35.9139785 Z M17.2779109,49.9963871 C17.0115883,50.8249462 16.7008786,51.0764731 16.2718034,51.0764731 C15.4580399,51.0764731 15.2213088,50.1591398 15.2213088,48.0433548 C15.2213088,45.6168602 15.5320184,44.8030968 16.3161905,44.8030968 C16.8044485,44.8030968 17.0855668,45.1138065 17.322298,45.9127742 L19.3789002,44.9510538 C18.9054378,43.5750538 18.0472873,42.5541505 16.2718034,42.5541505 C13.2830722,42.5541505 12.7652227,45.4393118 12.7652227,48.0581505 C12.7652227,50.5290323 13.2238894,53.3254194 16.2126206,53.3254194 C17.9585131,53.3254194 18.7278894,52.3636989 19.2605346,51.0764731 C19.2605346,51.0764731 18.7278894,52.3636989 19.2605346,51.0764731 L17.2779109,49.9963871 Z M28.4042765,53.1182796 L28.4042765,42.7612903 L25.9629862,42.7612903 L25.0604485,44.0781075 C24.6313733,44.7143226 24.3206636,45.2173763 24.3206636,45.2173763 L24.2910722,45.2173763 C24.2910722,45.2173763 24.0099539,44.7143226 23.5660829,44.0781075 L22.6487496,42.7612903 L20.1926636,42.7612903 L20.1926636,53.1182796 L22.5007926,53.1182796 L22.5007926,47.8510108 C22.5007926,47.2147957 22.4859969,46.608172 22.4859969,46.608172 L22.5155883,46.608172 C22.5155883,46.608172 22.7227281,47.052043 23.122212,47.5994839 L24.2762765,49.1826237 L24.3354593,49.1826237 L25.4895238,47.5994839 C25.8890077,47.052043 26.1109432,46.608172 26.1109432,46.608172 L26.1405346,46.608172 C26.1405346,46.608172 26.0961475,47.2 26.0961475,47.8510108 L26.0961475,53.1182796 L28.4042765,53.1182796 Z M29.3364055,51.180043 C29.9578249,52.408086 31.0379109,53.3254194 32.7098249,53.3254194 C34.6036743,53.3254194 36.0240614,52.1565591 36.0240614,50.2183226 C36.0240614,46.9188817 31.9552442,46.8744946 31.9552442,45.4097204 C31.9552442,45.0250323 32.2363625,44.7291183 32.6654378,44.7291183 C33.24247,44.7291183 33.7159324,45.2617634 33.8786851,45.9423656 L35.8317174,44.7883011 C35.2842765,43.3383226 34.1745991,42.5541505 32.7098249,42.5541505 C30.8159754,42.5541505 29.5435453,43.856172 29.5435453,45.5576774 C29.5435453,48.5907957 33.5679754,48.9163011 33.5679754,50.3366882 C33.5679754,50.7065806 33.3016528,51.0024946 32.7985991,51.0024946 C32.1919754,51.0024946 31.6445346,50.5734194 31.3930077,49.9372043 C31.3930077,49.9372043 31.6445346,50.5734194 31.3930077,49.9372043 L29.3364055,51.180043 Z M29.3364055,51.180043" id="NOTE" sketch:type="MSShapeGroup"></path>
            </g>
        </g>
    </g>
</svg>