<?xml version="1.0" encoding="UTF-8" standalone="no"?>
<svg width="20px" height="20px" viewBox="0 0 20 20" version="1.1" xmlns="http://www.w3.org/2000/svg" xmlns:xlink="http://www.w3.org/1999/xlink" xmlns:sketch="http://www.bohemiancoding.com/sketch/ns">
    <title>right</title>
    <description>Created with Sketch (http://www.bohemiancoding.com/sketch)</description>
    <defs></defs>
    <g id="Page-1" stroke="none" stroke-width="1" fill="none" fill-rule="evenodd" sketch:type="MSPage">
        <path d="M10,0 C4.4775,0 0,4.4775 0,10 C0,15.5225 4.4775,20 10,20 C15.5225,20 20,15.5225 20,10 C20,4.4775 15.5225,0 10,0 L10,0 L10,0 L10,0 L10,0 Z M10,2.42424243 C14.1830808,2.42424243 17.5757576,5.81691919 17.5757576,10 C17.5757576,14.1830808 14.1830808,17.5757576 10,17.5757576 C5.81691919,17.5757576 2.42424243,14.1830808 2.42424243,10 C2.42424243,5.81691919 5.81691919,2.42424243 10,2.42424243 C10,2.42424243 5.81691919,2.42424243 10,2.42424243 L10,2.42424243 L10,2.42424243 L10,2.42424243 L10,2.42424243 Z M14.7742138,8.83976275 C15.0253188,9.07615517 15.1515152,9.38649592 15.1515152,9.69683675 C15.1515152,10.0071775 15.0253188,10.3175183 14.7742138,10.5539107 L12.1987782,12.9784479 C11.8304909,13.3251568 11.2754845,13.4281996 10.793878,13.2415103 C10.3135593,13.0548209 9.99935617,12.6111306 9.99935617,12.121374 L9.99935617,10.9091053 L6.13620268,10.9091053 C5.42409472,10.9091053 4.84848485,10.3672213 4.84848485,9.69683675 C4.84848485,9.02645217 5.42409472,8.48456808 6.13620268,8.48456808 L9.99935617,8.48456808 L9.99935617,7.27229941 C9.99935617,6.78254288 10.3135593,6.33885254 10.793878,6.15216318 C11.2767723,5.9654738 11.8304909,6.06972891 12.1987782,6.41522547 L14.7742138,8.83976275 L14.7742138,8.83976275 L14.7742138,8.83976275 L14.7742138,8.83976275 Z M14.7742138,8.83976275" id="Shape" fill="#FCF9F9" sketch:type="MSShapeGroup"></path>
    </g>
</svg>