<?xml version="1.0" encoding="UTF-8" standalone="no"?>
<svg width="20px" height="20px" viewBox="0 0 20 20" version="1.1" xmlns="http://www.w3.org/2000/svg" xmlns:xlink="http://www.w3.org/1999/xlink" xmlns:sketch="http://www.bohemiancoding.com/sketch/ns">
    <title>upload</title>
    <description>Created with Sketch (http://www.bohemiancoding.com/sketch)</description>
    <defs></defs>
    <g id="Page-1" stroke="none" stroke-width="1" fill="none" fill-rule="evenodd" sketch:type="MSPage">
        <path d="M10.88625,10.36625 L13.38625,12.86625 C13.6525,13.135 13.77875,13.50375 13.745,13.87 C13.735,13.9925 13.70625,14.11125 13.6575,14.22875 C13.465,14.695 13.0075,15 12.5025,15 L11.25,15 L11.25,18.75 C11.25,19.44125 10.69125,20 10,20 C9.30875,20 8.75,19.44125 8.75,18.75 L8.75,15 L7.5025,15 C6.9975,15 6.54,14.695 6.3475,14.22875 C6.29875,14.11125 6.27,13.9925 6.2575,13.87 C6.22375,13.50375 6.35,13.135 6.61875,12.86625 L9.11875,10.36625 C9.3625,10.1225 9.6825,10 10.0025,10 C10.3225,10 10.6425,10.1225 10.88625,10.36625 C10.88625,10.36625 10.6425,10.1225 10.88625,10.36625 L10.88625,10.36625 L10.88625,10.36625 L10.88625,10.36625 L10.88625,10.36625 Z M20,10 L20,11.25 C20,13.32125 18.32125,15 16.25,15 L16.02625,15 C16.13375,14.69875 16.21,14.39125 16.23375,14.10125 C16.3375,12.99125 15.9475,11.9 15.15375,11.09875 L12.65375,8.59875 C11.94625,7.89 11.00375,7.5 10.0025,7.5 C9.00125,7.5 8.05875,7.89 7.35,8.59875 L4.85,11.09875 C4.0575,11.89125 3.66375,12.98625 3.76875,14.11875 C3.79625,14.38 3.85875,14.63375 3.93625,14.88125 C1.6875,14.39375 0,12.39625 0,10 L0,8.75 C0,5.98875 2.23875,3.75 5,3.75 C5.47625,3.75 5.925,3.8375 6.36125,3.96125 C6.84,1.69875 8.845,0 11.25,0 C14.01125,0 16.25,2.23875 16.25,5 C16.25,5.44125 16.17375,5.86125 16.0675,6.26875 C16.12875,6.265 16.1875,6.25 16.25,6.25 C18.32125,6.25 20,7.93 20,10 C20,10 20,7.93 20,10 L20,10 L20,10 Z M20,10" id="Shape" fill="#FCF9F9" sketch:type="MSShapeGroup"></path>
    </g>
</svg>